<?xml version="1.0" standalone="no"?>
<!DOCTYPE svg PUBLIC "-//W3C//DTD SVG 20010904//EN"
 "http://www.w3.org/TR/2001/REC-SVG-20010904/DTD/svg10.dtd">
<svg version="1.0" xmlns="http://www.w3.org/2000/svg"
 width="1024.000000pt" height="1024.000000pt" viewBox="0 0 1024.000000 1024.000000"
 preserveAspectRatio="xMidYMid meet">
<metadata>
Created by potrace 1.16, written by Peter Selinger 2001-2019
</metadata>
<g transform="translate(0.000000,1024.000000) scale(0.100000,-0.100000)"
fill="#000000" stroke="none">
<path d="M4770 8915 c-802 -77 -1534 -391 -2150 -924 -133 -114 -352 -342
-463 -481 -571 -715 -867 -1582 -844 -2470 11 -411 67 -730 197 -1120 223
-671 627 -1261 1178 -1722 597 -498 1359 -809 2133 -868 1478 -112 2870 628
3613 1924 372 647 550 1455 481 2181 -103 1080 -602 2007 -1445 2680 -561 448
-1287 735 -2020 800 -197 18 -494 17 -680 0z m904 -1626 l26 -31 0 -194 c0
-115 -4 -203 -10 -215 -12 -22 -61 -49 -89 -49 -34 0 -72 23 -87 51 -11 21
-14 73 -14 219 l0 192 29 29 c24 23 38 29 74 29 38 0 49 -5 71 -31z m-948
-280 c7 -5 65 -79 128 -163 122 -160 130 -180 102 -235 -26 -49 -101 -67 -143
-33 -33 27 -242 301 -249 327 -9 35 19 89 57 108 35 18 81 16 105 -4z m1855 5
c35 -18 63 -75 53 -107 -4 -12 -58 -90 -120 -174 -99 -133 -118 -153 -148
-158 -67 -13 -139 58 -120 118 11 34 217 314 239 326 30 14 62 13 96 -5z
m-721 -420 c186 -38 361 -130 500 -261 146 -138 245 -303 297 -498 24 -89 27
-118 27 -255 -1 -135 -4 -168 -27 -253 -30 -113 -94 -251 -118 -255 -11 -2
-32 18 -59 57 -23 33 -48 62 -56 65 -20 8 -17 41 11 112 53 133 65 323 29 470
-39 162 -143 330 -271 439 -143 122 -304 184 -498 192 -236 10 -441 -63 -604
-216 -29 -28 -61 -51 -70 -51 -30 -1 -171 74 -171 90 0 32 170 181 276 243
219 128 483 172 734 121z m1367 -312 c52 -40 59 -137 12 -162 -72 -39 -346
-150 -369 -150 -37 0 -87 42 -95 80 -4 18 0 42 10 64 14 29 29 40 88 65 40 16
117 50 172 75 108 49 148 55 182 28z m-2574 -127 c413 -62 754 -340 901 -736
l17 -45 62 13 c93 19 240 16 329 -6 270 -69 483 -272 554 -528 15 -56 20 -63
43 -63 60 -1 172 -32 251 -71 119 -59 229 -170 287 -289 52 -108 67 -171 67
-290 0 -166 -56 -315 -165 -433 -94 -103 -209 -172 -349 -208 -33 -9 -466 -12
-1660 -12 -1527 -1 -1619 0 -1694 17 -283 65 -507 244 -625 498 -51 109 -71
190 -78 318 -19 345 167 658 485 819 65 33 228 81 273 81 25 0 28 5 49 93 138
561 684 928 1253 842z m2474 -785 c92 -22 178 -42 190 -45 28 -7 53 -53 53
-99 0 -44 -43 -96 -80 -97 -14 -1 -108 19 -210 44 -208 51 -220 58 -220 134 0
36 6 50 29 74 16 16 38 29 49 29 11 0 96 -18 189 -40z"/>
<path d="M4300 5946 c-85 -18 -208 -67 -292 -117 -156 -91 -316 -285 -377
-455 -28 -77 -66 -262 -57 -272 3 -2 0 -16 -5 -31 -13 -37 -47 -51 -125 -51
-281 0 -529 -185 -621 -465 -23 -68 -27 -97 -26 -195 0 -95 5 -129 26 -193 69
-212 223 -367 442 -444 l80 -28 1630 0 1630 0 57 23 c83 33 146 80 201 147 72
90 91 148 92 280 0 103 -2 114 -32 178 -39 81 -123 173 -194 212 -74 40 -141
55 -251 55 -92 0 -97 1 -117 26 -14 17 -21 41 -21 68 0 62 -26 150 -66 227
-42 79 -141 178 -221 222 -66 35 -190 67 -263 67 -71 0 -199 -32 -258 -65 -86
-48 -115 -28 -141 100 -69 338 -324 605 -667 701 -81 22 -336 28 -424 10z"/>
</g>
</svg>
